<svg width="32" height="28" fill="none" xmlns="http://www.w3.org/2000/svg"><path d="M30.815 25.566H29.63V1.218a1.23 1.23 0 00-.348-.86A1.17 1.17 0 0028.444 0h-8.296a1.17 1.17 0 00-.838.357 1.234 1.234 0 00-.347.86v6.087h-7.111a1.17 1.17 0 00-.838.357 1.234 1.234 0 00-.347.86v6.088H3.556a1.17 1.17 0 00-.839.356 1.235 1.235 0 00-.347.861v9.74H1.185a1.17 1.17 0 00-.838.356 1.234 1.234 0 00-.347.86c0 .323.125.633.347.861.222.229.524.357.838.357h29.63c.314 0 .616-.128.838-.357.222-.228.347-.537.347-.86 0-.323-.125-.633-.347-.861a1.17 1.17 0 00-.838-.357zM13.037 9.74h5.926v15.826h-5.926V9.74zm-8.296 7.304h5.926v8.522H4.74v-8.521z" fill="#292930"/></svg>