<svg width="34" height="32" fill="none" xmlns="http://www.w3.org/2000/svg"><path d="M33.613 12.457a1.188 1.188 0 00-.607-.792l-3.61-1.972a11.074 11.074 0 00-.638-1.12l.06-4.065a1.223 1.223 0 00-.394-.911A17.057 17.057 0 0022.19.056a1.246 1.246 0 00-1.002.12l-3.535 2.091a18.9 18.9 0 00-1.304 0L12.813.175a1.241 1.241 0 00-1.002-.12 16.919 16.919 0 00-6.235 3.557 1.181 1.181 0 00-.395.896l.076 4.065c-.243.358-.455.732-.667 1.12L.994 11.665a1.164 1.164 0 00-.607.792 16.398 16.398 0 000 7.083 1.187 1.187 0 00.607.791l3.61 1.973c.194.386.412.76.653 1.12l-.076 4.064a1.224 1.224 0 00.395.912 17.194 17.194 0 006.235 3.541 1.247 1.247 0 001.002-.12l3.535-2.091h1.304l3.55 2.092c.185.12.402.182.623.179.123-.005.245-.025.364-.06a16.916 16.916 0 006.235-3.556 1.18 1.18 0 00.395-.897l-.06-4.064c.227-.358.44-.732.651-1.12l3.611-1.973a1.192 1.192 0 00.592-.791 16.398 16.398 0 000-7.083zm-9.937 3.541a6.51 6.51 0 01-1.125 3.653 6.655 6.655 0 01-2.996 2.421 6.77 6.77 0 01-3.857.374 6.707 6.707 0 01-3.418-1.799 6.544 6.544 0 01-1.827-3.366 6.481 6.481 0 01.38-3.798 6.597 6.597 0 012.458-2.95A6.749 6.749 0 0117 9.423c1.77 0 3.468.693 4.72 1.926a6.524 6.524 0 011.956 4.649z" fill="#292930"/></svg>