<svg width="34" height="34" fill="none" xmlns="http://www.w3.org/2000/svg"><path d="M12.35 15.025a1.31 1.31 0 00.65-1.127V2.3a1.28 1.28 0 00-.547-1.062 1.306 1.306 0 00-1.192-.162 16.933 16.933 0 00-8.155 6.132A16.698 16.698 0 000 16.878c.002 1.026.094 2.05.276 3.06a1.299 1.299 0 00.732.934c.173.081.36.125.552.129a1.31 1.31 0 00.65-.177l10.14-5.799zM10.4 4.25v8.907l-7.784 4.462c-.016-.258-.016-.5-.016-.741a14.13 14.13 0 012.111-7.4A14.3 14.3 0 0110.4 4.25z" fill="#292930"/><path d="M31.824 8.556a.133.133 0 01-.032-.065l-.063-.082a16.735 16.735 0 00-6.034-6.156A16.157 16.157 0 0017.482.001c-.337 0-.66.138-.899.383a1.325 1.325 0 00-.372.923V16.23L3.648 23.692a1.263 1.263 0 00-.379.33 1.304 1.304 0 00-.258.966c.021.17.076.335.16.483v.033l.048.082c1.832 3.224 4.647 5.737 8.009 7.15a16.098 16.098 0 0010.588.67c3.505-.98 6.598-3.12 8.8-6.089A17.293 17.293 0 0034 16.981a17.267 17.267 0 00-2.176-8.425z" fill="#292930"/></svg>