<svg width="442" height="511" fill="none" xmlns="http://www.w3.org/2000/svg"><path d="M203.421 442.412l-55.641 19.987m55.641-19.987V1.5m0 440.912l63.866 9.297m-63.866-9.297l237.079-78.7m0-309.315l-56.286-12.559M440.5 54.397v82.247m0-82.248L5.894 186.316M203.421 1.5l-63.222 16.562M203.421 1.5l63.866 14.25M92.139 482.387L16.66 509.5l-2.74-82.248m78.218 55.135L76.978 34.624m15.16 447.763l55.642-19.988M76.978 34.624L1.5 54.397l2.197 65.959m73.281-85.732L140.2 18.062m0 0l7.581 444.337m119.507-446.65v435.96m0-435.96l60.641 13.53m-60.641 422.43l60.641 8.827m0 0V29.28m0 431.256l56.286 8.194m-56.286-8.194L440.5 420.318M327.928 29.28l56.286 12.558M327.928 29.28L3.698 120.356m380.516-78.518V468.73m0 0l56.286 8.193v-56.605m-426.58 6.934L440.5 286.948M13.92 427.252l-2.299-69.023M440.5 286.948v-77.087m0 77.087v76.764m-428.879-5.483L440.5 209.861M11.621 358.229l-2.815-84.506M440.5 209.861v-73.217M8.806 273.723L440.5 136.644M8.806 273.723l-2.912-87.408m0 0l-2.197-65.959M440.5 363.712v56.606" stroke="url(#paint0_linear_4_4637)" stroke-width="2"/><defs><linearGradient id="paint0_linear_4_4637" x1="419" y1="84" x2="261.5" y2="286" gradientUnits="userSpaceOnUse"><stop stop-color="#CFDEEC"/><stop offset="1" stop-color="#B0C2D5" stop-opacity="0"/></linearGradient></defs></svg>