<svg width="155" height="155" fill="none" xmlns="http://www.w3.org/2000/svg"><circle cx="77.5" cy="77.5" r="77.5" fill="#FFD338"/><circle cx="77.5" cy="77.5" r="63.39" fill="#FFD338" stroke="#000" stroke-dasharray="7 7"/><circle cx="77.5" cy="77.5" r="46.5" fill="#FFDB5C"/><path d="M98.087 65.72c-1.075-.64-2.183-1.317-2.723-2.004s-.827-1.846-1.165-3.015c-.598-2.144-1.302-4.593-3.466-5.843-2.165-1.25-4.638-.635-6.794-.08-1.181.292-2.384.59-3.193.498-.81-.092-2.006-.745-3.096-1.356-1.922-1.053-4.12-2.247-6.425-1.63-2.306.619-3.612 2.75-4.75 4.624-.638 1.074-1.316 2.182-2.003 2.723-.686.54-1.845.827-3.014 1.164-2.145.599-4.594 1.302-5.844 3.467-1.25 2.164-.634 4.637-.08 6.794.292 1.18.59 2.384.499 3.193-.093.809-.746 2.006-1.357 3.096-1.053 1.922-2.247 4.119-1.629 6.425.618 2.306 2.75 3.611 4.623 4.75 1.074.638 2.183 1.315 2.723 2.002.54.687.827 1.846 1.164 3.015.599 2.145 1.303 4.594 3.467 5.843 2.165 1.25 4.638.635 6.794.081 1.181-.293 2.384-.591 3.193-.5.809.093 2.006.747 3.096 1.357 1.922 1.054 4.12 2.247 6.425 1.63 2.306-.618 3.612-2.75 4.75-4.624.638-1.074 1.316-2.182 2.002-2.722.687-.541 1.846-.828 3.015-1.165 2.145-.598 4.594-1.302 5.844-3.466 1.25-2.165.634-4.638.08-6.794-.292-1.182-.59-2.385-.499-3.194.092-.808.746-2.005 1.357-3.096 1.053-1.922 2.247-4.119 1.629-6.424-.618-2.306-2.75-3.612-4.623-4.75zm-10.315 4.426l-9.666 15.897a1.86 1.86 0 01-1.11.82 1.814 1.814 0 01-1.35-.16l-8.16-4.468a1.836 1.836 0 111.75-3.225l6.625 3.62 8.783-14.402a1.836 1.836 0 013.128 1.918z" fill="#36363A"/></svg>