<svg width="22" height="18" fill="none" xmlns="http://www.w3.org/2000/svg"><path d="M21 1.829V16.17a.824.824 0 01-.331.662.836.836 0 01-.732.135L1.605 11.66A.833.833 0 011 10.864V7.137a.824.824 0 01.604-.796l18.334-5.31a.839.839 0 01.975.428.824.824 0 01.087.37z" stroke="#42E052" stroke-width="1.5" stroke-linecap="round" stroke-linejoin="round"/><path d="M5 12.56v3.638c0 .213.088.417.244.567a.85.85 0 00.59.235h3.333a.85.85 0 00.589-.235.787.787 0 00.244-.567V4" stroke="#42E052" stroke-width="1.5" stroke-linecap="round" stroke-linejoin="round"/></svg>