<svg width="30" height="30" fill="none" xmlns="http://www.w3.org/2000/svg"><path d="M22.05 9H4.95c-.525 0-.95.42-.95.938v13.124c0 .518.425.938.95.938h17.1c.525 0 .95-.42.95-.938V9.938A.944.944 0 0022.05 9z" stroke="#FF5449" stroke-width="1.5" stroke-linecap="round" stroke-linejoin="round"/><path d="M8 9V6.937c0-.248.095-.487.264-.662A.882.882 0 018.9 6h16.2a.88.88 0 01.636.275.958.958 0 01.264.662v13.125a.958.958 0 01-.264.663.882.882 0 01-.636.275H23M4 13h19" stroke="#FF5449" stroke-width="1.5" stroke-linecap="round" stroke-linejoin="round"/></svg>