<svg width="12" height="13" viewBox="0 0 12 13" fill="none" xmlns="http://www.w3.org/2000/svg">
<path d="M3.26947 2.79775C3.36605 0.954844 5.76446 0.312192 6.76956 1.8599C7.21905 2.55206 8.06311 2.87607 8.86029 2.66246C10.6428 2.18483 11.9952 4.26726 10.8338 5.70143C10.3144 6.34281 10.2671 7.24569 10.7166 7.93784C11.7217 9.48555 10.1591 11.4152 8.43624 10.7539C7.66575 10.4581 6.79245 10.6921 6.27307 11.3335C5.1117 12.7677 2.7936 11.8778 2.89019 10.0349C2.93338 9.21076 2.44096 8.4525 1.67048 8.15674C-0.0523846 7.4954 0.0775665 5.01579 1.86012 4.53815C2.6573 4.32455 3.22628 3.62192 3.26947 2.79775Z" fill="#5956E8"/>
</svg>
