<svg width="280" height="325" viewBox="0 0 280 325" fill="none" xmlns="http://www.w3.org/2000/svg">
<path d="M128.978 280.792L93.7742 293.438M128.978 280.792L128.978 1.8268M128.978 280.792L169.386 286.674M128.978 280.792L278.978 230.998M278.978 35.2944L243.366 27.3487M278.978 35.2944L278.978 87.3325M278.978 35.2944L4.00348 118.759M128.978 1.8268L88.9783 12.3055M128.978 1.8268L169.386 10.8426M58.5701 306.084L10.815 323.238L9.08152 271.2M58.5701 306.084L48.9782 22.7842M58.5701 306.084L93.7742 293.438M48.9782 22.7842L1.22313 35.2944L2.6133 77.0269M48.9782 22.7842L88.9783 12.3055M88.9783 12.3055L93.7742 293.438M169.386 10.8426L169.386 286.674M169.386 10.8426L207.754 19.403M169.386 286.674L207.754 292.259M207.754 292.259L207.754 19.403M207.754 292.259L243.366 297.443M207.754 292.259L278.978 266.813M207.754 19.403L243.366 27.3487M207.754 19.403L2.6133 77.0269M243.366 27.3487L243.366 297.443M243.366 297.443L278.978 302.627L278.978 266.813M9.08152 271.2L278.978 182.429M9.08152 271.2L7.62676 227.529M278.978 182.429L278.978 133.657M278.978 182.429L278.978 230.998M7.62676 227.529L278.978 133.657M7.62676 227.529L5.84571 174.063M278.978 133.657L278.978 87.3325M5.84571 174.063L278.978 87.3325M5.84571 174.063L4.00348 118.759M4.00348 118.759L2.6133 77.0269M278.978 230.998L278.978 266.813" stroke="url(#paint0_linear_4_2712)" stroke-width="2"/>
<defs>
<linearGradient id="paint0_linear_4_2712" x1="265.375" y1="54.0246" x2="165.725" y2="181.83" gradientUnits="userSpaceOnUse">
<stop stop-color="#CFDEEC"/>
<stop offset="1" stop-color="#B0C2D5" stop-opacity="0"/>
</linearGradient>
</defs>
</svg>
